<mxfile host="app.diagrams.net" modified="2024-04-22T16:22:13.938Z" agent="Mozilla/5.0 (Windows NT 10.0; Win64; x64) AppleWebKit/537.36 (KHTML, like Gecko) Chrome/121.0.0.0 Safari/537.36 OPR/107.0.0.0" etag="5hWb_IWmHJF5VGUHUfum" version="24.2.7" type="device">
  <diagram name="Page-1" id="F0YZSikpPhgS7tMAf8a_">
    <mxGraphModel dx="1393" dy="758" grid="1" gridSize="10" guides="1" tooltips="1" connect="1" arrows="1" fold="1" page="1" pageScale="1" pageWidth="850" pageHeight="1100" math="0" shadow="0">
      <root>
        <mxCell id="0" />
        <mxCell id="1" parent="0" />
        <mxCell id="xuMV_xSKKyPTVSILYOYx-1" value="" style="rounded=0;whiteSpace=wrap;html=1;" vertex="1" parent="1">
          <mxGeometry x="140" y="30" width="550" height="330" as="geometry" />
        </mxCell>
        <mxCell id="xuMV_xSKKyPTVSILYOYx-3" value="" style="rounded=0;whiteSpace=wrap;html=1;" vertex="1" parent="1">
          <mxGeometry x="140" y="30" width="550" height="70" as="geometry" />
        </mxCell>
        <mxCell id="xuMV_xSKKyPTVSILYOYx-4" value="" style="ellipse;whiteSpace=wrap;html=1;aspect=fixed;" vertex="1" parent="1">
          <mxGeometry x="470" y="130" width="155" height="155" as="geometry" />
        </mxCell>
        <mxCell id="xuMV_xSKKyPTVSILYOYx-5" value="Text" style="text;html=1;align=center;verticalAlign=middle;whiteSpace=wrap;rounded=0;" vertex="1" parent="1">
          <mxGeometry x="200" y="158.75" width="150" height="97.5" as="geometry" />
        </mxCell>
        <mxCell id="xuMV_xSKKyPTVSILYOYx-6" value="Text" style="text;html=1;align=center;verticalAlign=middle;whiteSpace=wrap;rounded=0;" vertex="1" parent="1">
          <mxGeometry x="170" y="50" width="60" height="30" as="geometry" />
        </mxCell>
        <mxCell id="xuMV_xSKKyPTVSILYOYx-7" value="Text" style="text;html=1;align=center;verticalAlign=middle;whiteSpace=wrap;rounded=0;" vertex="1" parent="1">
          <mxGeometry x="450" y="60" width="25" height="10" as="geometry" />
        </mxCell>
        <mxCell id="xuMV_xSKKyPTVSILYOYx-8" value="Text" style="text;html=1;align=center;verticalAlign=middle;whiteSpace=wrap;rounded=0;" vertex="1" parent="1">
          <mxGeometry x="500" y="60" width="25" height="10" as="geometry" />
        </mxCell>
        <mxCell id="xuMV_xSKKyPTVSILYOYx-9" value="Text" style="text;html=1;align=center;verticalAlign=middle;whiteSpace=wrap;rounded=0;" vertex="1" parent="1">
          <mxGeometry x="555" y="60" width="25" height="10" as="geometry" />
        </mxCell>
        <mxCell id="xuMV_xSKKyPTVSILYOYx-10" value="Text" style="text;html=1;align=center;verticalAlign=middle;whiteSpace=wrap;rounded=0;" vertex="1" parent="1">
          <mxGeometry x="610" y="60" width="25" height="10" as="geometry" />
        </mxCell>
        <mxCell id="xuMV_xSKKyPTVSILYOYx-20" value="" style="rounded=0;whiteSpace=wrap;html=1;" vertex="1" parent="1">
          <mxGeometry x="140" y="390" width="550" height="330" as="geometry" />
        </mxCell>
        <mxCell id="xuMV_xSKKyPTVSILYOYx-21" value="" style="rounded=0;whiteSpace=wrap;html=1;" vertex="1" parent="1">
          <mxGeometry x="140" y="390" width="550" height="70" as="geometry" />
        </mxCell>
        <mxCell id="xuMV_xSKKyPTVSILYOYx-22" value="" style="ellipse;whiteSpace=wrap;html=1;aspect=fixed;" vertex="1" parent="1">
          <mxGeometry x="220" y="500" width="155" height="155" as="geometry" />
        </mxCell>
        <mxCell id="xuMV_xSKKyPTVSILYOYx-23" value="Text" style="text;html=1;align=center;verticalAlign=middle;whiteSpace=wrap;rounded=0;" vertex="1" parent="1">
          <mxGeometry x="470" y="540" width="150" height="97.5" as="geometry" />
        </mxCell>
        <mxCell id="xuMV_xSKKyPTVSILYOYx-24" value="Text" style="text;html=1;align=center;verticalAlign=middle;whiteSpace=wrap;rounded=0;" vertex="1" parent="1">
          <mxGeometry x="170" y="410" width="60" height="30" as="geometry" />
        </mxCell>
        <mxCell id="xuMV_xSKKyPTVSILYOYx-25" value="Text" style="text;html=1;align=center;verticalAlign=middle;whiteSpace=wrap;rounded=0;" vertex="1" parent="1">
          <mxGeometry x="450" y="420" width="25" height="10" as="geometry" />
        </mxCell>
        <mxCell id="xuMV_xSKKyPTVSILYOYx-26" value="Text" style="text;html=1;align=center;verticalAlign=middle;whiteSpace=wrap;rounded=0;" vertex="1" parent="1">
          <mxGeometry x="500" y="420" width="25" height="10" as="geometry" />
        </mxCell>
        <mxCell id="xuMV_xSKKyPTVSILYOYx-27" value="Text" style="text;html=1;align=center;verticalAlign=middle;whiteSpace=wrap;rounded=0;" vertex="1" parent="1">
          <mxGeometry x="555" y="420" width="25" height="10" as="geometry" />
        </mxCell>
        <mxCell id="xuMV_xSKKyPTVSILYOYx-28" value="Text" style="text;html=1;align=center;verticalAlign=middle;whiteSpace=wrap;rounded=0;" vertex="1" parent="1">
          <mxGeometry x="610" y="420" width="25" height="10" as="geometry" />
        </mxCell>
      </root>
    </mxGraphModel>
  </diagram>
</mxfile>
